<?xml version="1.0" encoding="UTF-8" standalone="no"?>
<!DOCTYPE svg PUBLIC "-//W3C//DTD SVG 1.1//EN" "http://www.w3.org/Graphics/SVG/1.1/DTD/svg11.dtd">
<svg width="100%" height="100%" viewBox="0 0 100 100" version="1.1" xmlns="http://www.w3.org/2000/svg" xmlns:xlink="http://www.w3.org/1999/xlink" xml:space="preserve" xmlns:serif="http://www.serif.com/" style="fill-rule:evenodd;clip-rule:evenodd;stroke-linejoin:round;stroke-miterlimit:2;">
    <g transform="matrix(1,0,0,1,-138.455,-250)">
        <g transform="matrix(1,0,0,1,3.58226,4.71194)">
            <g transform="matrix(1.01384,0,0,1.01384,-1.86697,-3.39539)">
                <rect x="134.872" y="245.288" width="98.635" height="98.635" style="fill:white;"/>
            </g>
            <g transform="matrix(1.09935,0,0,1.09935,-22.666,-22.6674)">
                <g transform="matrix(1,0,0,1,-51.6347,117.559)">
                    <g transform="matrix(66.6667,0,0,66.6667,206.307,182.441)">
                        <path d="M0.207,0.015C0.154,0.015 0.11,0.001 0.074,-0.027C0.039,-0.055 0.014,-0.093 0,-0.14L0.104,-0.165C0.108,-0.143 0.12,-0.124 0.139,-0.108C0.158,-0.092 0.18,-0.084 0.204,-0.084C0.219,-0.084 0.236,-0.088 0.253,-0.096C0.269,-0.104 0.282,-0.117 0.291,-0.135C0.296,-0.147 0.3,-0.161 0.301,-0.176C0.302,-0.192 0.302,-0.21 0.302,-0.231L0.302,-0.72L0.408,-0.72L0.408,-0.231C0.408,-0.209 0.408,-0.19 0.408,-0.174C0.407,-0.157 0.406,-0.141 0.403,-0.127C0.399,-0.112 0.393,-0.097 0.384,-0.081C0.365,-0.048 0.341,-0.024 0.31,-0.009C0.279,0.007 0.244,0.015 0.207,0.015Z" style="fill-rule:nonzero;"/>
                    </g>
                </g>
                <g transform="matrix(1,0,0,1,-64.2766,138.166)">
                    <g transform="matrix(66.6667,0,0,66.6667,246.705,187.279)">
                        <path d="M0.331,0.015C0.279,0.015 0.233,0.006 0.191,-0.012C0.15,-0.03 0.115,-0.055 0.089,-0.088C0.062,-0.121 0.044,-0.161 0.037,-0.206L0.145,-0.223C0.156,-0.179 0.179,-0.145 0.214,-0.12C0.249,-0.096 0.29,-0.084 0.337,-0.084C0.366,-0.084 0.393,-0.088 0.417,-0.097C0.441,-0.106 0.461,-0.12 0.476,-0.137C0.491,-0.154 0.498,-0.175 0.498,-0.199C0.498,-0.212 0.496,-0.223 0.491,-0.233C0.487,-0.243 0.481,-0.252 0.473,-0.259C0.465,-0.267 0.455,-0.273 0.444,-0.279C0.433,-0.284 0.421,-0.289 0.408,-0.293L0.223,-0.348C0.205,-0.353 0.187,-0.36 0.168,-0.368C0.149,-0.377 0.132,-0.388 0.117,-0.402C0.101,-0.416 0.089,-0.433 0.079,-0.453C0.069,-0.474 0.065,-0.499 0.065,-0.528C0.065,-0.572 0.076,-0.61 0.099,-0.641C0.122,-0.672 0.153,-0.695 0.192,-0.711C0.23,-0.727 0.274,-0.735 0.322,-0.734C0.371,-0.734 0.415,-0.725 0.453,-0.709C0.492,-0.692 0.524,-0.668 0.549,-0.637C0.575,-0.605 0.592,-0.568 0.602,-0.524L0.49,-0.504C0.485,-0.532 0.474,-0.555 0.458,-0.574C0.442,-0.594 0.422,-0.609 0.398,-0.619C0.374,-0.63 0.349,-0.635 0.321,-0.636C0.294,-0.636 0.27,-0.632 0.248,-0.623C0.226,-0.615 0.208,-0.603 0.195,-0.587C0.182,-0.571 0.175,-0.553 0.175,-0.533C0.175,-0.513 0.181,-0.497 0.192,-0.485C0.204,-0.472 0.218,-0.463 0.236,-0.455C0.253,-0.448 0.27,-0.442 0.287,-0.438L0.42,-0.4C0.437,-0.395 0.456,-0.389 0.477,-0.381C0.498,-0.374 0.519,-0.363 0.538,-0.349C0.558,-0.334 0.575,-0.316 0.588,-0.293C0.601,-0.27 0.607,-0.241 0.607,-0.205C0.607,-0.169 0.6,-0.137 0.585,-0.11C0.57,-0.082 0.55,-0.059 0.525,-0.041C0.499,-0.022 0.47,-0.008 0.437,0.001C0.403,0.01 0.368,0.015 0.331,0.015Z" style="fill-rule:nonzero;"/>
                    </g>
                </g>
            </g>
        </g>
    </g>
</svg>
