<?xml version="1.0" encoding="UTF-8" standalone="no"?>
<!DOCTYPE svg PUBLIC "-//W3C//DTD SVG 1.1//EN" "http://www.w3.org/Graphics/SVG/1.1/DTD/svg11.dtd">
<svg width="100%" height="100%" viewBox="0 0 100 100" version="1.1" xmlns="http://www.w3.org/2000/svg" xmlns:xlink="http://www.w3.org/1999/xlink" xml:space="preserve" xmlns:serif="http://www.serif.com/" style="fill-rule:evenodd;clip-rule:evenodd;stroke-linejoin:round;stroke-miterlimit:2;">
    <g transform="matrix(1,0,0,1,-221.17,-126.537)">
        <g id="twitter">
            <g transform="matrix(1.04938,0,0,1.04938,-10.9213,-11.1908)">
                <circle cx="268.817" cy="178.894" r="47.647" style="fill:rgb(85,172,239);"/>
            </g>
            <path d="M297.757,154.528C297.757,154.528 295.218,155.924 293.923,156.397C292.773,156.816 290.376,157.391 290.376,157.391C290.376,157.391 288.706,155.715 287.724,155.146C284.473,153.26 280.396,153.071 277.017,154.825C273.443,156.68 271.231,159.945 270.504,163.841C270.255,165.175 270.736,167.872 270.736,167.872C270.736,167.872 268.194,167.633 266.842,167.373C261.179,166.286 256.274,164.091 251.719,160.514C250.499,159.556 249.41,158.44 248.321,157.336C247.886,156.896 247.157,155.891 247.157,155.891C247.157,155.891 246.141,157.446 245.931,158.332C245.096,161.842 245.168,164.616 247.813,168.537C248.319,169.288 248.995,169.914 249.646,170.546C249.895,170.788 250.539,171.267 250.539,171.267C250.539,171.267 248.839,171.018 247.751,170.735C247.196,170.591 245.339,169.723 245.339,169.723C245.339,169.723 245.459,171.464 245.601,172.323C245.873,173.976 246.941,175.665 247.161,176.061C248.166,177.867 249.64,178.996 251.364,180.071C252.018,180.48 254.532,181.236 254.532,181.236C254.532,181.236 252.828,181.609 251.937,181.636C251.149,181.659 249.309,181.404 249.309,181.404C249.309,181.404 250.142,183.398 250.733,184.241C251.269,185.005 252.171,186.084 253.169,186.89C254.088,187.632 255.091,188.115 255.92,188.546C257.305,189.266 260.16,189.406 260.16,189.406C260.16,189.406 257.71,191.192 254.748,192.463C252.688,193.347 250.32,193.839 248.943,194.024C247.978,194.154 247.003,194.219 246.03,194.231C245.12,194.242 243.124,194.115 243.124,194.115C243.124,194.115 244.474,195.116 246.045,195.88C247.958,196.81 250.206,197.55 250.841,197.742C260.635,200.7 271.412,199.434 279.821,193.38C285.535,189.267 289.821,183.078 291.997,176.362C292.493,174.832 293.289,170.891 293.451,169.267C293.593,167.852 293.556,165.004 293.556,165.004C293.556,165.004 295.875,163.39 297.035,162.041C297.644,161.332 299.232,159.199 299.232,159.199C299.232,159.199 296.782,160.101 295.708,160.375C294.698,160.634 292.729,160.971 292.729,160.971C292.729,160.971 294.991,159.264 295.853,158.168C296.685,157.109 297.757,154.528 297.757,154.528Z" style="fill:white;"/>
        </g>
    </g>
</svg>
